# File created by Blade
# Date/Time:  Tue Jan 27 18:35:12 2015
#---------------------------------------------------------
:version 1.10
:name HOM
:units
  mass 1.0
  length 1.000000
  angle deg
:documentation
     Acclaim Skeleton File
:root
   axis xyz
   order TX TY TZ RX RY RZ
   position 0.000000 0.000000 0.000000
   orientation 0 0 0
:bonedata
   begin
      id 1
      name Spine_dum
      direction 0.000000 1.000000 0.000000
      length 5.195262
      axis 0.0 0.0 0.0 xyz
   end
   begin
      id 2
      name LeftUpLeg_dum
      direction 1.000000 0.000000 0.000000
      length 3.351363
      axis 0.0 0.0 0.0 xyz
   end
   begin
      id 3
      name RightUpLeg_dum
      direction -1.000000 0.000000 0.000000
      length 3.351363
      axis 0.0 0.0 0.0 xyz
   end
   begin
      id 4
      name Spine
      direction 0.000000 1.000000 0.000000
      length 0.000000
      axis 0.0 0.0 0.0 xyz
      dof rx ry rz
   end
   begin
      id 5
      name Spine_dum1
      direction 0.000000 1.000000 0.000000
      length 15.653875
      axis 0.0 0.0 0.0 xyz
   end
   begin
      id 6
      name Spine_dum2
      direction 0.000000 1.000000 0.000000
      length 10.329768
      axis 0.0 0.0 0.0 xyz
   end
   begin
      id 7
      name Spine_dum3
      direction 0.000000 1.000000 0.000000
      length 10.329768
      axis 0.0 0.0 0.0 xyz
   end
   begin
      id 8
      name Head
      direction 0.000000 1.000000 0.000000
      length 4.527550
      axis 0.0 0.0 0.0 xyz
      dof rx ry rz
   end
   begin
      id 9
      name LeftShoulder
      direction 1.000000 0.000000 0.000000
      length 6.996006
      axis 0.0 0.0 -90.0 xyz
      dof rx ry rz
   end
   begin
      id 10
      name LeftArm
      direction 1.000000 0.000000 0.000000
      length 10.209302
      axis 0.0 0.0 -90.0 xyz
      dof rx ry rz
   end
   begin
      id 11
      name LeftForeArm
      direction 1.000000 0.000000 0.000000
      length 8.563163
      axis 0.0 0.0 -90.0 xyz
      dof ry rz rx
   end
   begin
      id 12
      name LeftHand
      direction 0.000000 0.000000 0.000000
      length 0.000000
      axis 0.0 0.0 -90.0 xyz
      dof rx ry rz
   end
   begin
      id 13
      name LeftHand_dum1
      direction 0.000000 0.000000 0.000000
      length 0.000000
      axis 0.0 0.0 -90.0 xyz
   end
   begin
      id 14
      name LeftHand_dum2
      direction 1.000000 0.000000 0.000000
      length 3.937000
      axis 0.0 0.0 -90.0 xyz
   end
   begin
      id 15
      name LeftHandThumb1
      direction 0.000000 0.000000 1.000000
      length 3.937000
      axis 0.0 0.0 -90.0 xyz
      dof rx rz ry
   end
   begin
      id 16
      name RightShoulder
      direction -1.000000 0.000000 0.000000
      length 6.996006
      axis 0.0 0.0 90.0 xyz
      dof rx ry rz
   end
   begin
      id 17
      name RightArm
      direction -1.000000 0.000000 0.000000
      length 10.209302
      axis 0.0 0.0 90.0 xyz
      dof rx ry rz
   end
   begin
      id 18
      name RightForeArm
      direction -1.000000 0.000000 0.000000
      length 8.563163
      axis 0.0 0.0 90.0 xyz
      dof ry rz rx
   end
   begin
      id 19
      name RightHand
      direction 0.000000 0.000000 0.000000
      length 0.000000
      axis 0.0 0.0 90.0 xyz
      dof rx ry rz
   end
   begin
      id 20
      name RightHand_dum1
      direction 0.000000 0.000000 0.000000
      length 0.000000
      axis 0.0 0.0 90.0 xyz
   end
   begin
      id 21
      name RightHand_dum2
      direction -1.000000 0.000000 0.000000
      length 3.937000
      axis 0.0 0.0 90.0 xyz
   end
   begin
      id 22
      name RightHandThumb1
      direction 0.000000 0.000000 1.000000
      length 3.937000
      axis 0.0 0.0 90.0 xyz
      dof rx rz ry
   end
   begin
      id 23
      name LeftUpLeg
      direction 0.000000 -1.000000 0.000000
      length 16.346831
      axis 0.0 0.0 0.0 xyz
      dof rx ry rz
   end
   begin
      id 24
      name LeftLeg
      direction 0.000000 -1.000000 0.000000
      length 13.959795
      axis 0.0 0.0 0.0 xyz
      dof rx ry rz
   end
   begin
      id 25
      name LeftFoot
      direction 0.000000 -0.258819 0.965926
      length 5.165550
      axis 15.0 0.0 0.0 xyz
      dof rx ry rz
   end
   begin
      id 26
      name LeftToeBase
      direction 0.000000 0.000000 1.000000
      length 2.952750
      axis 0.0 0.0 0.0 xyz
      dof rx ry rz
   end
   begin
      id 27
      name RightUpLeg
      direction 0.000000 -1.000000 0.000000
      length 16.346831
      axis 0.0 0.0 0.0 xyz
      dof rx ry rz
   end
   begin
      id 28
      name RightLeg
      direction 0.000000 -1.000000 0.000000
      length 13.959795
      axis 0.0 0.0 0.0 xyz
      dof rx ry rz
   end
   begin
      id 29
      name RightFoot
      direction 0.000000 -0.258819 0.965926
      length 5.165550
      axis 15.0 0.0 0.0 xyz
      dof rx ry rz
   end
   begin
      id 30
      name RightToeBase
      direction 0.000000 0.000000 1.000000
      length 2.952750
      axis 0.0 0.0 0.0 xyz
      dof rx ry rz
   end
:hierarchy
   begin
      root Spine_dum LeftUpLeg_dum RightUpLeg_dum
      Spine_dum Spine
      LeftUpLeg_dum LeftUpLeg
      RightUpLeg_dum RightUpLeg
      Spine Spine_dum1 Spine_dum2 Spine_dum3
      Spine_dum1 Head
      Spine_dum2 LeftShoulder
      Spine_dum3 RightShoulder
      LeftShoulder LeftArm
      LeftArm LeftForeArm
      LeftForeArm LeftHand
      LeftHand LeftHand_dum1 LeftHand_dum2
      LeftHand_dum1 LeftHandThumb1
      RightShoulder RightArm
      RightArm RightForeArm
      RightForeArm RightHand
      RightHand RightHand_dum1 RightHand_dum2
      RightHand_dum1 RightHandThumb1
      LeftUpLeg LeftLeg
      LeftLeg LeftFoot
      LeftFoot LeftToeBase
      RightUpLeg RightLeg
      RightLeg RightFoot
      RightFoot RightToeBase
   end

# File created by Blade
# Date/Time:  Tue Jan 27 18:35:03 2015
# Frame Rate: 120.000 fps
#------------------------------------------------------
:FULLY-SPECIFIED
:DEGREES
973
root -4.119987 31.558555 -1.743248 -12.462166 18.917827 -14.428068
Spine 14.312631 -11.667824 -2.421548
Head 5.243228 2.391767 14.065383
LeftShoulder -12.914953 9.876479 21.339825
LeftArm 36.649323 -4.637805 -71.381572
LeftForeArm 131.508543 -0.000000 133.243830
LeftHand 9.225338 -0.000000 -6.737406
LeftHandThumb1 -26.253704 0.000000 33.147579
RightShoulder -15.066242 -8.317365 -5.493365
RightArm 7.064442 -36.402006 78.166975
RightForeArm -25.240078 -0.000000 33.465050
RightHand -14.328412 0.000000 10.933984
RightHandThumb1 -24.326973 -0.000000 -32.862282
LeftUpLeg -4.772270 -2.128797 7.442283
LeftLeg 34.399107 -0.000000 -0.000000
LeftFoot -30.574403 13.373113 -16.998904
LeftToeBase 7.731633 -0.000000 -0.000000
RightUpLeg -90.069053 6.667821 24.875706
RightLeg 83.277750 -0.000000 -0.000000
RightFoot -10.779454 -0.024147 30.426932
RightToeBase 5.429361 -0.000000 -0.000000
974
root -4.120423 31.561174 -1.752900 -12.423751 18.627346 -14.385074
Spine 14.316187 -11.602969 -2.464853
Head 5.437565 2.420132 14.309612
LeftShoulder -12.951920 9.962678 21.333842
LeftArm 36.635321 -4.790003 -71.455340
LeftForeArm 131.594853 -0.000000 133.168460
LeftHand 9.275003 -0.000000 -6.899020
LeftHandThumb1 -26.253704 0.000000 33.147579
RightShoulder -15.141467 -8.382903 -5.368937
RightArm 7.185861 -36.503818 78.065196
RightForeArm -25.111300 0.000000 33.231612
RightHand -14.583913 0.000000 10.194035
RightHandThumb1 -24.326973 -0.000000 -32.862282
LeftUpLeg -4.722267 -1.808757 7.483623
LeftLeg 34.366209 -0.000000 -0.000000
LeftFoot -30.566105 13.124571 -17.266029
LeftToeBase 7.530268 -0.000000 -0.000000
RightUpLeg -90.091418 6.826104 24.776000
RightLeg 83.171916 -0.000000 -0.000000
RightFoot -10.820117 -0.154244 30.347172
RightToeBase 5.642323 -0.000000 -0.000000
975
root -4.127711 31.566556 -1.757218 -12.391885 18.228695 -14.329397
Spine 14.308084 -11.440396 -2.535513
Head 5.680526 2.492469 14.575253
LeftShoulder -12.966341 10.064545 21.372825
LeftArm 36.567407 -4.967669 -71.559610
LeftForeArm 131.787912 -0.000000 133.087899
LeftHand 9.160718 -0.000000 -6.876706
LeftHandThumb1 -26.253704 0.000000 33.147579
RightShoulder -15.171540 -8.439133 -5.224502
RightArm 7.188510 -36.527324 78.036474
RightForeArm -25.087058 0.000000 33.050474
RightHand -14.503768 -0.000000 10.241166
RightHandThumb1 -24.326973 -0.000000 -32.862282
LeftUpLeg -4.619859 -1.349224 7.566090
LeftLeg 34.308600 -0.000000 -0.000000
LeftFoot -30.592047 12.844408 -17.436160
LeftToeBase 7.717240 -0.000000 -0.000000
RightUpLeg -90.027927 7.101993 24.709441
RightLeg 83.009370 -0.000000 -0.000000
RightFoot -10.847546 -0.301475 30.324279
RightToeBase 5.962704 -0.000000 -0.000000
976
root -4.124571 31.570015 -1.764375 -12.410823 17.968634 -14.292089
Spine 14.359605 -11.437076 -2.594224
Head 5.910635 2.569858 14.785007
LeftShoulder -12.956009 10.163735 21.392241
LeftArm 36.440261 -5.257917 -71.752406
LeftForeArm 131.756218 -0.000000 133.065035
LeftHand 9.355485 -0.000000 -6.833661
LeftHandThumb1 -26.253704 0.000000 33.147579
RightShoulder -15.193489 -8.434993 -5.161095
RightArm 7.107428 -36.515458 78.089289
RightForeArm -25.213760 -0.000000 32.894973
RightHand -14.151961 -0.000000 10.952270
RightHandThumb1 -24.326973 -0.000000 -32.862282
LeftUpLeg -4.523537 -1.059543 7.610072
LeftLeg 34.292922 -0.000000 -0.000000
LeftFoot -30.605233 12.597454 -17.601493
LeftToeBase 7.822168 -0.000000 -0.000000
RightUpLeg -90.009535 7.192438 24.627318
RightLeg 82.943192 -0.000000 -0.000000
RightFoot -10.796522 -0.357852 30.270752
RightToeBase 5.683396 -0.000000 -0.000000
977
root -4.128397 31.578012 -1.769423 -12.499101 17.653073 -14.303873
Spine 14.479114 -11.409946 -2.633654
Head 6.162821 2.626966 15.018125
LeftShoulder -12.955764 10.263427 21.441390
LeftArm 36.258769 -5.536765 -71.912028
LeftForeArm 131.792987 -0.000000 133.030370
LeftHand 9.360039 -0.000000 -6.929265
LeftHandThumb1 -26.253704 0.000000 33.147579
RightShoulder -15.181324 -8.498565 -5.056955
RightArm 7.105914 -36.423408 78.107087
RightForeArm -25.353523 -0.000000 32.747595
RightHand -14.288350 -0.000000 11.080692
RightHandThumb1 -24.326973 -0.000000 -32.862282
LeftUpLeg -4.360181 -0.684969 7.739278
LeftLeg 34.272444 -0.000000 -0.000000
LeftFoot -30.622356 12.322464 -17.811025
LeftToeBase 8.098646 -0.000000 -0.000000
RightUpLeg -89.877015 7.306363 24.661393
RightLeg 82.825861 -0.000000 -0.000000
RightFoot -10.768169 -0.474966 30.201667
RightToeBase 5.717781 -0.000000 -0.000000
978
root -4.124405 31.582468 -1.778089 -12.529862 17.405662 -14.250667
Spine 14.563771 -11.419975 -2.727456
Head 6.371680 2.646937 15.208500
LeftShoulder -12.932126 10.336030 21.471555
LeftArm 36.052967 -5.858126 -72.098672
LeftForeArm 131.920677 -0.000000 133.035900
LeftHand 9.385933 -0.000000 -7.021154
LeftHandThumb1 -26.253704 0.000000 33.147579
RightShoulder -15.213872 -8.518157 -4.986910
RightArm 7.059227 -36.392106 78.142899
RightForeArm -25.391031 -0.000000 32.604159
RightHand -14.295437 -0.000000 11.292465
RightHandThumb1 -24.326973 -0.000000 -32.862282
LeftUpLeg -4.262816 -0.357169 7.774746
LeftLeg 34.274078 -0.000000 -0.000000
LeftFoot -30.607255 12.055750 -17.958531
LeftToeBase 8.261084 -0.000000 -0.000000
RightUpLeg -89.818461 7.355786 24.623058
RightLeg 82.738694 -0.000000 -0.000000
RightFoot -10.733004 -0.544030 30.035341
RightToeBase 5.511422 -0.000000 -0.000000
979
root -4.124905 31.586554 -1.786562 -12.531866 17.210570 -14.293407
Spine 14.570753 -11.528149 -2.723256
Head 6.622068 2.680269 15.360386
LeftShoulder -12.935082 10.467154 21.483898
LeftArm 35.852352 -6.179368 -72.280123
LeftForeArm 132.005377 -0.000000 133.027019
LeftHand 9.326020 -0.000000 -7.045740
LeftHandThumb1 -26.253704 0.000000 33.147579
RightShoulder -15.254987 -8.556467 -4.952934
RightArm 7.044669 -36.498333 78.160768
RightForeArm -25.088354 -0.000000 32.447947
RightHand -14.619842 0.000000 10.671654
RightHandThumb1 -24.326973 -0.000000 -32.862282
LeftUpLeg -4.261150 -0.046879 7.908134
LeftLeg 34.318864 -0.000000 -0.000000
LeftFoot -30.626572 11.727680 -18.133258
LeftToeBase 8.501445 -0.000000 -0.000000
RightUpLeg -89.815234 7.368769 24.693709
RightLeg 82.661578 -0.000000 -0.000000
RightFoot -10.792262 -0.639089 29.926316
RightToeBase 6.125956 -0.000000 -0.000000
980
root -4.123836 31.590691 -1.797347 -12.537048 17.021086 -14.300518
Spine 14.609912 -11.602095 -2.778730
Head 6.822352 2.706156 15.557995
LeftShoulder -12.931949 10.362439 21.525949
LeftArm 35.526782 -6.481650 -72.488277
LeftForeArm 132.000816 -0.000000 132.989437
LeftHand 9.425404 -0.000000 -6.947905
LeftHandThumb1 -26.253704 0.000000 33.147579
RightShoulder -15.283257 -8.618417 -4.871010
RightArm 6.987636 -36.383050 78.175945
RightForeArm -25.148492 -0.000000 32.355942
RightHand -14.672561 -0.000000 10.680078
RightHandThumb1 -24.326973 -0.000000 -32.862282
LeftUpLeg -4.244688 0.243057 7.995837
LeftLeg 34.354211 -0.000000 -0.000000
LeftFoot -30.622173 11.417340 -18.308821
LeftToeBase 8.692059 -0.000000 -0.000000
RightUpLeg -89.807295 7.364067 24.754109
RightLeg 82.600405 -0.000000 -0.000000
RightFoot -10.762427 -0.742014 29.793269
RightToeBase 5.975839 -0.000000 -0.000000
981
root -4.122665 31.593363 -1.808892 -12.534424 16.824081 -14.296190
Spine 14.638684 -11.697965 -2.822398
Head 7.043788 2.729047 15.665361
LeftShoulder -12.884177 10.427539 21.503309
LeftArm 35.213264 -6.898612 -72.619683
LeftForeArm 132.018961 -0.000000 133.037289
LeftHand 9.159938 -0.000000 -7.094811
LeftHandThumb1 -26.253704 0.000000 33.147579
RightShoulder -15.295240 -8.639586 -4.854581
RightArm 6.865497 -36.348343 78.283474
RightForeArm -25.034720 -0.000000 32.235860
RightHand -14.724985 0.000000 10.404979
RightHandThumb1 -24.326973 -0.000000 -32.862282
LeftUpLeg -4.222497 0.541618 8.066028
LeftLeg 34.369612 -0.000000 -0.000000
LeftFoot -30.631007 11.165245 -18.444376
LeftToeBase 8.902861 -0.000000 -0.000000
RightUpLeg -89.795347 7.358012 24.831763
RightLeg 82.544780 -0.000000 -0.000000
RightFoot -10.744365 -0.869158 29.630445
RightToeBase 5.451999 -0.000000 -0.000000
982
root -4.123071 31.596423 -1.815904 -12.519843 16.618625 -14.303431
Spine 14.632148 -11.767933 -2.860302
Head 7.267177 2.734313 15.785841
LeftShoulder -12.886705 10.503477 21.461007
LeftArm 35.009816 -7.350727 -72.815350
LeftForeArm 132.136931 -0.000000 133.102714
LeftHand 9.395936 0.000000 -7.173780
LeftHandThumb1 -26.253704 0.000000 33.147579
RightShoulder -15.333596 -8.730705 -4.820620
RightArm 6.761670 -36.246226 78.387004
RightForeArm -25.247478 0.000000 32.176052
RightHand -14.935176 -0.000000 10.500122
RightHandThumb1 -24.326973 -0.000000 -32.862282
LeftUpLeg -4.192887 0.869310 8.151956
LeftLeg 34.353858 -0.000000 -0.000000
LeftFoot -30.638667 10.972509 -18.487110
LeftToeBase 9.040620 -0.000000 -0.000000
RightUpLeg -89.777984 7.372850 24.952991
RightLeg 82.497391 -0.000000 -0.000000
RightFoot -10.867466 -0.975710 29.593998
RightToeBase 5.910384 -0.000000 -0.000000
983
root -4.127380 31.599195 -1.822067 -12.463786 16.384827 -14.309544
Spine 14.571692 -11.796011 -2.890592
Head 7.470650 2.676566 15.924698
LeftShoulder -12.904980 10.592070 21.417906
LeftArm 34.827007 -7.758787 -72.992686
LeftForeArm 132.076296 -0.000000 133.116485
LeftHand 9.411500 -0.000000 -7.262482
LeftHandThumb1 -26.253704 0.000000 33.147579
RightShoulder -15.400902 -8.736907 -4.792537
RightArm 6.545953 -36.175779 78.520589
RightForeArm -25.253593 -0.000000 32.115997
RightHand -14.558913 -0.000000 10.927667
RightHandThumb1 -24.326973 -0.000000 -32.862282
LeftUpLeg -4.186207 1.225637 8.249287
LeftLeg 34.323738 -0.000000 -0.000000
LeftFoot -30.659959 10.751168 -18.549380
LeftToeBase 9.241628 -0.000000 -0.000000
RightUpLeg -89.783373 7.446901 25.071320
RightLeg 82.459824 -0.000000 -0.000000
RightFoot -10.935991 -1.054631 29.656265
RightToeBase 5.697225 -0.000000 -0.000000
984
root -4.125400 31.600175 -1.834350 -12.417971 16.234621 -14.299010
Spine 14.554135 -11.903011 -2.935101
Head 7.633241 2.662302 15.993025
LeftShoulder -12.910352 10.591199 21.320893
LeftArm 34.616008 -8.209785 -73.104354
LeftForeArm 132.047777 -0.000000 133.138078
LeftHand 9.304235 -0.000000 -7.301334
LeftHandThumb1 -26.253704 0.000000 33.147579
RightShoulder -15.462881 -8.775311 -4.780372
RightArm 6.363686 -36.077423 78.650040
RightForeArm -25.207545 -0.000000 32.086223
RightHand -14.572692 -0.000000 10.773852
RightHandThumb1 -24.326973 -0.000000 -32.862282
LeftUpLeg -4.197738 1.453936 8.285123
LeftLeg 34.297962 -0.000000 -0.000000
LeftFoot -30.674517 10.611927 -18.595878
LeftToeBase 9.381710 -0.000000 -0.000000
RightUpLeg -89.821885 7.403247 25.214658
RightLeg 82.466244 -0.000000 -0.000000
RightFoot -11.070392 -1.212425 29.711153
RightToeBase 5.365300 -0.000000 -0.000000
